<svg id="visual" viewBox="0 0 900 600" width="900" height="600" xmlns="http://www.w3.org/2000/svg" xmlns:xlink="http://www.w3.org/1999/xlink" version="1.1"><rect x="0" y="0" width="900" height="600" fill="#002233"></rect><path d="M0 459L13.7 450C27.3 441 54.7 423 82 430.5C109.3 438 136.7 471 163.8 469.8C191 468.7 218 433.3 245.2 415.7C272.3 398 299.7 398 327 407C354.3 416 381.7 434 409 444.2C436.3 454.3 463.7 456.7 491 458C518.3 459.3 545.7 459.7 573 445C600.3 430.3 627.7 400.7 654.8 390.5C682 380.3 709 389.7 736.2 414.3C763.3 439 790.7 479 818 490.5C845.3 502 872.7 485 886.3 476.5L900 468L900 601L886.3 601C872.7 601 845.3 601 818 601C790.7 601 763.3 601 736.2 601C709 601 682 601 654.8 601C627.7 601 600.3 601 573 601C545.7 601 518.3 601 491 601C463.7 601 436.3 601 409 601C381.7 601 354.3 601 327 601C299.7 601 272.3 601 245.2 601C218 601 191 601 163.8 601C136.7 601 109.3 601 82 601C54.7 601 27.3 601 13.7 601L0 601Z" fill="#2196f3" stroke-linecap="round" stroke-linejoin="miter"></path></svg>